<svg xmlns="http://www.w3.org/2000/svg" viewBox="0 0 144.11 192.19"><defs></defs><g id="Layer_2" data-name="Layer 2"><g id="Layer_1-2" data-name="Layer 1"><g id="Layer_2-2" data-name="Layer 2"><g id="Layer_1-2-2" data-name="Layer 1-2"><path class="cls-1" d="M9.56,170.49V148h4.77l6.58,13.51L27.49,148h4.76v22.51H27.58V155.88l-5.27,10.74H19.59l-5.31-10.74v14.61Z"/><path class="cls-1" d="M96.64,170.43V151.61H89.71V148h18.58v3.63h-6.91v18.82Z"/><path class="cls-1" d="M129.78,170.49V148h4.74v22.51Z"/><path class="cls-1" d="M.25,192V180.27H1.78V192Z"/><path class="cls-1" d="M6.18,192V180.27H7.54l6.84,9.43v-9.43h1.54V192H14.51l-6.84-9.43V192Z"/><path class="cls-1" d="M20.31,192V180.27h7.88v1.17H21.76v4.12H27.4v1.15H21.76V192Z"/><path class="cls-1" d="M32.58,192V180.27h5.26a3.6,3.6,0,0,1,2.81,1,3.86,3.86,0,0,1,.9,2.68,3.46,3.46,0,0,1-.66,2.22A3.08,3.08,0,0,1,39,187.27a1.64,1.64,0,0,1,.57.51,5.52,5.52,0,0,1,.42.75l1.56,3.54H40l-1.53-3.41a1.69,1.69,0,0,0-.6-.77,2.19,2.19,0,0,0-1.2-.25H34.09v4.43Zm1.51-5.55H37.4a3,3,0,0,0,1.91-.58,2.67,2.67,0,0,0-1.2-4.38,2,2,0,0,0-.49,0H34.09Z"/><path class="cls-1" d="M46,192l4.56-11.73h1.8L56.92,192H55.36l-1.27-3.23H48.78L47.51,192Zm3.11-4.42h4.68l-2.35-6.05Z"/><path class="cls-1" d="M61.31,192V180.27h1.51v5.29h6.34v-5.29H70.7V192H69.16v-5.29H62.82V192Z"/><path class="cls-1" d="M75.09,192V180.27h8.12v1.17H76.63v4.12h5.9v1.15h-5.9v4.17h6.58v1.17Z"/><path class="cls-1" d="M87.6,192V180.27h1.52V192Z"/><path class="cls-1" d="M99.15,192.18a6.57,6.57,0,0,1-3.2-.7,4.4,4.4,0,0,1-1.91-2,7,7,0,0,1-.53-3,8.39,8.39,0,0,1,.6-3.29A4.36,4.36,0,0,1,96,181a6,6,0,0,1,3.27-.76,11.08,11.08,0,0,1,1.91.13,14.57,14.57,0,0,1,1.58.39v1.34a8.61,8.61,0,0,0-1.58-.44,10.6,10.6,0,0,0-1.78-.15,4.82,4.82,0,0,0-2.57.59,3.53,3.53,0,0,0-1.36,1.73,8.3,8.3,0,0,0-.5,2.66,4.77,4.77,0,0,0,1,3.31A4.16,4.16,0,0,0,99.26,191a8.82,8.82,0,0,0,1.54-.14,5.4,5.4,0,0,0,1.31-.35v-3.77h-3.2v-1h4.54v5.53a6.24,6.24,0,0,1-1.58.64A10.35,10.35,0,0,1,99.15,192.18Z"/><path class="cls-1" d="M107.84,192V180.27h1.54v5.29h6.34v-5.29h1.52V192h-1.52v-5.29h-6.34V192Z"/><path class="cls-1" d="M125.62,192V181.44h-4v-1.17H131v1.17h-3.91V192Z"/><path class="cls-1" d="M139.32,192.18a9.56,9.56,0,0,1-3.6-.55v-1.31a9.6,9.6,0,0,0,1.67.46,13.38,13.38,0,0,0,1.8.15,5.15,5.15,0,0,0,2.41-.44,1.59,1.59,0,0,0,.79-1.51,1.79,1.79,0,0,0-.31-1.1,2.52,2.52,0,0,0-1.07-.68,13.83,13.83,0,0,0-2-.57,6.68,6.68,0,0,1-2.79-1.23,2.7,2.7,0,0,1-.79-2,2.81,2.81,0,0,1,1.1-2.32,5.41,5.41,0,0,1,3.36-.86,13.91,13.91,0,0,1,1.93.13,12.55,12.55,0,0,1,1.38.31V182a7.2,7.2,0,0,0-1.45-.38,11,11,0,0,0-1.62-.13,5.13,5.13,0,0,0-2.35.44,1.54,1.54,0,0,0-.83,1.49,1.47,1.47,0,0,0,.3,1,2,2,0,0,0,1,.63,11.8,11.8,0,0,0,1.93.55,8.77,8.77,0,0,1,2.2.84,2.67,2.67,0,0,1,1.16,1.12,3.31,3.31,0,0,1,.33,1.49,2.8,2.8,0,0,1-1.17,2.37A6,6,0,0,1,139.32,192.18Z"/><polygon class="cls-1" points="144.11 0 144.11 107.24 140.22 107.24 140.22 3.86 111.9 3.86 72.23 82.59 32.56 3.86 4.04 3.86 4.04 107.24 0 107.24 0 0 144.11 0"/><path class="cls-1" d="M140.22,126.16v8.78H111.9V49.63L80.41,112.29H64.05L32.36,49.63v85.24H4v-8.78H0v12.58H144.11V126.16Zm-59.81,8.78H64V123.55H80.41Z"/><path class="cls-1" d="M60.67,170.55Q50,170.55,50,159.31c0-4,.9-6.95,2.7-8.75s4.46-2.7,8-2.7,6.19.9,8,2.7,2.7,4.71,2.7,8.75Q71.37,170.56,60.67,170.55Zm0-3.93a5.54,5.54,0,0,0,4.56-1.79q1.45-1.8,1.45-5.52,0-4.14-1.45-5.83a5.69,5.69,0,0,0-4.56-1.69,5.7,5.7,0,0,0-4.57,1.69q-1.45,1.7-1.45,5.83,0,3.72,1.45,5.52A5.55,5.55,0,0,0,60.67,166.62Z"/></g></g></g></g></svg>