<svg xmlns="http://www.w3.org/2000/svg" viewBox="0 0 351.54 98.59"><defs></defs><g id="Layer_2" data-name="Layer 2"><g id="Layer_1-2" data-name="Layer 1"><path class="cls-1" d="M141.25,50.52V15.26h7.46L159,36.41l10.31-21.15h7.45V50.52h-7.32V27.64l-8.24,16.81H157l-8.32-16.81V50.52Z"/><path class="cls-1" d="M277.63,50.41V20.94H266.77V15.26h29.1v5.68H285.05V50.41Z"/><path class="cls-1" d="M329.53,50.52V15.26H337V50.52Z"/><path class="cls-1" d="M126.66,83.09V64.71h2.41V83.09Z"/><path class="cls-1" d="M136,83.09V64.71h2.13L148.8,79.48V64.71h2.4V83.09H149L138.28,68.32V83.09Z"/><path class="cls-1" d="M158.08,83.09V64.71h12.34v1.84H160.35V73h8.83v1.8h-8.83v8.29Z"/><path class="cls-1" d="M177.29,83.09V64.71h8.25a5.63,5.63,0,0,1,4.4,1.53,6.06,6.06,0,0,1,1.41,4.19,5.44,5.44,0,0,1-1,3.47,4.86,4.86,0,0,1-3,1.77,2.84,2.84,0,0,1,.89.8,10.39,10.39,0,0,1,.65,1.18l2.44,5.55h-2.44l-2.4-5.35a2.64,2.64,0,0,0-.93-1.21,3.36,3.36,0,0,0-1.89-.38h-4V83.2Zm2.38-8.7h5.18a4.64,4.64,0,0,0,3-.9,3.46,3.46,0,0,0,1.1-3,3.45,3.45,0,0,0-3-3.87,3.22,3.22,0,0,0-.76,0h-5.53Z"/><path class="cls-1" d="M198.23,83.09l7.15-18.38h2.82l7.21,18.38H213L211,78h-8.31l-2,5.06Zm4.88-6.93h7.32l-3.68-9.47Z"/><path class="cls-1" d="M222.29,83.09V64.71h2.37V73h9.93V64.71H237V83.09h-2.41V74.8h-9.93v8.29Z"/><path class="cls-1" d="M243.88,83.09V64.71h12.71v1.84H246.28V73h9.24v1.8h-9.24v6.52h10.31v1.84Z"/><path class="cls-1" d="M263.47,83.09V64.71h2.37V83.09Z"/><path class="cls-1" d="M281.56,83.37a10.38,10.38,0,0,1-5-1.1,6.88,6.88,0,0,1-3-3.16,10.7,10.7,0,0,1-.82-4.64,13.21,13.21,0,0,1,.92-5.16,6.86,6.86,0,0,1,2.92-3.43,9.55,9.55,0,0,1,5.12-1.21,21.36,21.36,0,0,1,3,.21,23.65,23.65,0,0,1,2.48.62v2.1a13.21,13.21,0,0,0-2.48-.69,16.22,16.22,0,0,0-2.78-.24,7.52,7.52,0,0,0-4,.93,5.39,5.39,0,0,0-2.13,2.71,12.33,12.33,0,0,0-.79,4.16,7.6,7.6,0,0,0,1.58,5.19,6.53,6.53,0,0,0,5.19,1.85,13.8,13.8,0,0,0,2.4-.2,10.53,10.53,0,0,0,2.07-.55V74.85h-5V73.27h7.11v8.65a9.63,9.63,0,0,1-2.47,1A16.12,16.12,0,0,1,281.56,83.37Z"/><path class="cls-1" d="M295.17,83.09V64.71h2.4V73h9.93V64.71h2.38V83.09H307.5V74.8h-9.93v8.29Z"/><path class="cls-1" d="M323,83.09V66.55h-6.26V64.71h14.74v1.84h-6.11V83.09Z"/><path class="cls-1" d="M344.46,83.09a15.44,15.44,0,0,1-5.64-.85v-2a14,14,0,0,0,2.61.71,19.17,19.17,0,0,0,2.82.24,8.31,8.31,0,0,0,3.78-.68,2.42,2.42,0,0,0,1.24-2.33,2.79,2.79,0,0,0-.48-1.7,4.06,4.06,0,0,0-1.69-1,20.94,20.94,0,0,0-3.12-.88,10.31,10.31,0,0,1-4.37-1.89,4.06,4.06,0,0,1-1.23-3.12,4.31,4.31,0,0,1,1.71-3.58,8.49,8.49,0,0,1,5.26-1.32,20.56,20.56,0,0,1,3,.2,17.68,17.68,0,0,1,2.16.47v2a11.61,11.61,0,0,0-2.27-.57,14.42,14.42,0,0,0-2.54-.2,8.17,8.17,0,0,0-3.68.67,2.4,2.4,0,0,0-1.3,2.3,2.28,2.28,0,0,0,.48,1.49,3.08,3.08,0,0,0,1.51,1,21.13,21.13,0,0,0,3,.84,14,14,0,0,1,3.44,1.29A4.22,4.22,0,0,1,351,75.85a4.94,4.94,0,0,1,.52,2.3,4.28,4.28,0,0,1-1.82,3.65A9.34,9.34,0,0,1,344.46,83.09Z"/><path class="cls-1" d="M221.28,50.5q-16.75,0-16.75-17.46,0-9.39,4.23-13.59t12.52-4.19q8.31,0,12.53,4.19T238,33Q238,50.5,221.28,50.5Zm0-6.1q4.88,0,7.15-2.79T230.71,33q0-6.42-2.28-9t-7.15-2.63c-3.24,0-5.63.88-7.14,2.63s-2.28,4.77-2.28,9.05q0,5.79,2.28,8.57C215.65,43.47,218,44.4,221.28,44.4Z"/><polygon class="cls-1" points="102.41 0 102.41 74.41 99.65 74.41 99.65 2.75 79.52 2.75 51.33 58.69 23.14 2.75 2.86 2.75 2.86 74.41 0 74.41 0 0 102.41 0"/><path class="cls-1" d="M99.65,89.66v6.18H79.51V35.27L57.15,79.8H45.51L23,35.27V95.84H2.86V89.66H0v8.93H102.41V89.66ZM57.14,95.84H45.5v-8H57.14Z"/></g></g></svg>